name rise42.5664peak47.7979fall81.9185.mot
datacolumns 19
datarows 22
range 12.509955 12.544955
endheader
time	ground_force1_vx	ground_force1_vy	ground_force1_vz	ground_force1_px	ground_force1_py	ground_force1_pz	ground_force2_vx	ground_force2_vy	ground_force2_vz	ground_force2_px	ground_force2_py	ground_force2_pz	ground_torque1_x	ground_torque1_y	ground_torque1_z	ground_torque2_x	ground_torque2_y	ground_torque2_z	
12.509955	0.000000	0.000000	0.000000	0.000000	0.000000	0.000000	-1.059432	712.799147	-39.339162	0.172989	0.000000	-0.094558	0.000000	0.000000	0.000000	0.000000	-14.555894	0.000000	
12.511614	0.000000	0.000000	0.000000	0.000000	0.000000	0.000000	-1.582027	714.042511	-39.389151	0.172058	0.000000	-0.094604	0.000000	0.000000	0.000000	0.000000	-14.655669	0.000000	
12.513282	0.000000	0.000000	0.000000	0.000000	0.000000	0.000000	-2.112971	715.311128	-39.443786	0.171126	0.000000	-0.094648	0.000000	0.000000	0.000000	0.000000	-14.757820	0.000000	
12.514951	0.000000	0.000000	0.000000	0.000000	0.000000	0.000000	-2.652067	716.606108	-39.503303	0.170195	0.000000	-0.094692	0.000000	0.000000	0.000000	0.000000	-14.862289	0.000000	
12.516614	0.000000	0.000000	0.000000	0.000000	0.000000	0.000000	-3.199106	717.928604	-39.567956	0.169264	0.000000	-0.094735	0.000000	0.000000	0.000000	0.000000	-14.969018	0.000000	
12.518284	0.000000	0.000000	0.000000	0.000000	0.000000	0.000000	-3.753863	719.279798	-39.638012	0.168332	0.000000	-0.094778	0.000000	0.000000	0.000000	0.000000	-15.077948	0.000000	
12.519953	0.000000	0.000000	0.000000	0.000000	0.000000	0.000000	-4.316100	720.660890	-39.713756	0.167401	0.000000	-0.094820	0.000000	0.000000	0.000000	0.000000	-15.189022	0.000000	
12.521619	0.000000	0.000000	0.000000	0.000000	0.000000	0.000000	-4.885568	722.073083	-39.795482	0.166469	0.000000	-0.094861	0.000000	0.000000	0.000000	0.000000	-15.302180	0.000000	
12.523287	0.000000	0.000000	0.000000	0.000000	0.000000	0.000000	-5.462002	723.517574	-39.883499	0.165537	0.000000	-0.094902	0.000000	0.000000	0.000000	0.000000	-15.417362	0.000000	
12.524951	0.000000	0.000000	0.000000	0.000000	0.000000	0.000000	-6.045130	724.995533	-39.978124	0.164604	0.000000	-0.094942	0.000000	0.000000	0.000000	0.000000	-15.534508	0.000000	
12.526622	0.000000	0.000000	0.000000	0.000000	0.000000	0.000000	-6.634665	726.508099	-40.079685	0.163670	0.000000	-0.094982	0.000000	0.000000	0.000000	0.000000	-15.653556	0.000000	
12.528289	0.000000	0.000000	0.000000	0.000000	0.000000	0.000000	-7.230311	728.056356	-40.188517	0.162734	0.000000	-0.095022	0.000000	0.000000	0.000000	0.000000	-15.774441	0.000000	
12.529952	0.000000	0.000000	0.000000	0.000000	0.000000	0.000000	-7.831758	729.641329	-40.304960	0.161796	0.000000	-0.095061	0.000000	0.000000	0.000000	0.000000	-15.897100	0.000000	
12.531615	0.000000	0.000000	0.000000	0.000000	0.000000	0.000000	-8.438690	731.263966	-40.429360	0.160856	0.000000	-0.095100	0.000000	0.000000	0.000000	0.000000	-16.021464	0.000000	
12.533282	0.000000	0.000000	0.000000	0.000000	0.000000	0.000000	-9.050779	732.925124	-40.562063	0.159913	0.000000	-0.095139	0.000000	0.000000	0.000000	0.000000	-16.147464	0.000000	
12.534951	0.000000	0.000000	0.000000	0.000000	0.000000	0.000000	-9.667687	734.625560	-40.703417	0.158968	0.000000	-0.095178	0.000000	0.000000	0.000000	0.000000	-16.275027	0.000000	
12.536621	0.000000	0.000000	0.000000	0.000000	0.000000	0.000000	-10.289068	736.365918	-40.853766	0.158019	0.000000	-0.095217	0.000000	0.000000	0.000000	0.000000	-16.404077	0.000000	
12.538287	0.000000	0.000000	0.000000	0.000000	0.000000	0.000000	-10.914567	738.146712	-41.013452	0.157066	0.000000	-0.095256	0.000000	0.000000	0.000000	0.000000	-16.534537	0.000000	
12.539950	0.000000	0.000000	0.000000	0.000000	0.000000	0.000000	-11.543820	739.968325	-41.182809	0.156110	0.000000	-0.095295	0.000000	0.000000	0.000000	0.000000	-16.666323	0.000000	
12.541615	0.000000	0.000000	0.000000	0.000000	0.000000	0.000000	-12.176455	741.830987	-41.362162	0.155149	0.000000	-0.095334	0.000000	0.000000	0.000000	0.000000	-16.799350	0.000000	
12.543287	0.000000	0.000000	0.000000	0.000000	0.000000	0.000000	-12.812096	743.734775	-41.551826	0.154183	0.000000	-0.095374	0.000000	0.000000	0.000000	0.000000	-16.933527	0.000000	
12.544955	0.000000	0.000000	0.000000	0.000000	0.000000	0.000000	-13.450355	745.679596	-41.752101	0.153213	0.000000	-0.095415	0.000000	0.000000	0.000000	0.000000	-17.068759	0.000000	
